<svg xmlns="http://www.w3.org/2000/svg" viewBox="0 0 512 512" role="img" aria-label="G-Finance maskable app icon">
  <defs>
    <radialGradient id="orangeGlow" cx="28%" cy="72%" r="66%">
      <stop offset="0" stop-color="#fb4b14" stop-opacity=".42" />
      <stop offset=".55" stop-color="#fb4b14" stop-opacity=".12" />
      <stop offset="1" stop-color="#fb4b14" stop-opacity="0" />
    </radialGradient>
    <radialGradient id="purpleGlow" cx="78%" cy="28%" r="66%">
      <stop offset="0" stop-color="#7c3aed" stop-opacity=".34" />
      <stop offset=".58" stop-color="#7c3aed" stop-opacity=".1" />
      <stop offset="1" stop-color="#7c3aed" stop-opacity="0" />
    </radialGradient>
    <linearGradient id="mark" x1="140" y1="146" x2="372" y2="370" gradientUnits="userSpaceOnUse">
      <stop offset="0" stop-color="#ff7a1a" />
      <stop offset="1" stop-color="#fb3f0b" />
    </linearGradient>
  </defs>
  <rect width="512" height="512" fill="#080808" />
  <rect width="512" height="512" fill="url(#orangeGlow)" />
  <rect width="512" height="512" fill="url(#purpleGlow)" />
  <path d="M86 150h340M86 256h340M86 362h340M150 86v340M256 86v340M362 86v340" stroke="#ffffff" stroke-opacity=".045" stroke-width="2" />
  <path d="M153 181h174c31 0 56 25 56 56v98c0 31-25 56-56 56H153c-31 0-56-25-56-56v-98c0-31 25-56 56-56Z" fill="#111111" stroke="url(#mark)" stroke-width="20" />
  <path d="M383 252h-64c-22 0-40 18-40 40s18 40 40 40h64v-80Z" fill="#161616" stroke="url(#mark)" stroke-width="18" />
  <circle cx="320" cy="292" r="13" fill="#ff6a16" />
  <path d="M169 323v-48M209 323v-77M249 323V214" stroke="url(#mark)" stroke-width="18" stroke-linecap="round" />
</svg>
