<svg xmlns="http://www.w3.org/2000/svg" viewBox="0 0 512 512" role="img" aria-label="G-Finance app icon">
  <defs>
    <radialGradient id="orangeGlow" cx="30%" cy="72%" r="65%">
      <stop offset="0" stop-color="#fb4b14" stop-opacity=".42" />
      <stop offset=".55" stop-color="#fb4b14" stop-opacity=".12" />
      <stop offset="1" stop-color="#fb4b14" stop-opacity="0" />
    </radialGradient>
    <radialGradient id="purpleGlow" cx="78%" cy="28%" r="64%">
      <stop offset="0" stop-color="#7c3aed" stop-opacity=".34" />
      <stop offset=".58" stop-color="#7c3aed" stop-opacity=".1" />
      <stop offset="1" stop-color="#7c3aed" stop-opacity="0" />
    </radialGradient>
    <linearGradient id="mark" x1="126" y1="122" x2="390" y2="390" gradientUnits="userSpaceOnUse">
      <stop offset="0" stop-color="#ff7a1a" />
      <stop offset="1" stop-color="#fb3f0b" />
    </linearGradient>
    <filter id="softGlow" x="-40%" y="-40%" width="180%" height="180%">
      <feGaussianBlur in="SourceGraphic" stdDeviation="12" result="blur" />
      <feColorMatrix in="blur" values="1 0 0 0 1 0 .35 0 0 .23 0 0 .12 0 0 0 0 0 .68 0" result="glow" />
      <feMerge>
        <feMergeNode in="glow" />
        <feMergeNode in="SourceGraphic" />
      </feMerge>
    </filter>
  </defs>
  <rect width="512" height="512" rx="112" fill="#080808" />
  <rect width="512" height="512" rx="112" fill="url(#orangeGlow)" />
  <rect width="512" height="512" rx="112" fill="url(#purpleGlow)" />
  <path d="M72 144h368M72 256h368M72 368h368M144 72v368M256 72v368M368 72v368" stroke="#ffffff" stroke-opacity=".045" stroke-width="2" />
  <g filter="url(#softGlow)">
    <path d="M150 170h186c34 0 62 28 62 62v112c0 34-28 62-62 62H150c-34 0-62-28-62-62V232c0-34 28-62 62-62Z" fill="#111111" stroke="url(#mark)" stroke-width="22" />
    <path d="M398 248h-72c-24 0-44 20-44 44s20 44 44 44h72v-88Z" fill="#161616" stroke="url(#mark)" stroke-width="20" />
    <circle cx="328" cy="292" r="14" fill="#ff6a16" />
    <path d="M166 332v-55M210 332v-86M254 332v-121" stroke="url(#mark)" stroke-width="20" stroke-linecap="round" />
  </g>
</svg>
